<mxfile host="65bd71144e" modified="2021-02-06T12:25:19.369Z" agent="5.0 (Windows NT 10.0; Win64; x64) AppleWebKit/537.36 (KHTML, like Gecko) Code/1.53.0 Chrome/87.0.4280.141 Electron/11.2.1 Safari/537.36" etag="tY8EZiOUR0VLJcNio3u5" version="13.10.0" type="embed">
    <diagram id="0hn8_jwdR_boEfz-WC2f" name="Page-1">
        <mxGraphModel dx="1569" dy="710" grid="1" gridSize="10" guides="1" tooltips="1" connect="1" arrows="1" fold="1" page="1" pageScale="1" pageWidth="827" pageHeight="1169" math="0" shadow="0">
            <root>
                <mxCell id="0"/>
                <mxCell id="1" parent="0"/>
                <mxCell id="30" value="" style="rounded=1;whiteSpace=wrap;html=1;strokeWidth=2;fillWeight=4;hachureGap=8;hachureAngle=45;sketch=1;" vertex="1" parent="1">
                    <mxGeometry x="350" y="19.99" width="340" height="180" as="geometry"/>
                </mxCell>
                <mxCell id="29" value="" style="rounded=1;whiteSpace=wrap;html=1;strokeWidth=2;fillWeight=4;hachureGap=8;hachureAngle=45;sketch=1;" vertex="1" parent="1">
                    <mxGeometry x="350" y="240" width="330" height="350" as="geometry"/>
                </mxCell>
                <mxCell id="22" style="edgeStyle=orthogonalEdgeStyle;rounded=0;orthogonalLoop=1;jettySize=auto;html=1;entryX=0;entryY=0.5;entryDx=0;entryDy=0;" edge="1" parent="1" source="2" target="4">
                    <mxGeometry relative="1" as="geometry"/>
                </mxCell>
                <mxCell id="23" style="edgeStyle=orthogonalEdgeStyle;rounded=0;orthogonalLoop=1;jettySize=auto;html=1;dashed=1;" edge="1" parent="1" source="2" target="3">
                    <mxGeometry relative="1" as="geometry"/>
                </mxCell>
                <mxCell id="2" value="baseLinux.json" style="aspect=fixed;html=1;points=[];align=center;image;fontSize=12;image=img/lib/mscae/VM_Linux.svg;" vertex="1" parent="1">
                    <mxGeometry x="381.25" y="331" width="50" height="46" as="geometry"/>
                </mxCell>
                <mxCell id="9" style="edgeStyle=orthogonalEdgeStyle;rounded=0;orthogonalLoop=1;jettySize=auto;html=1;dashed=1;" edge="1" parent="1" source="3" target="5">
                    <mxGeometry relative="1" as="geometry"/>
                </mxCell>
                <mxCell id="33" style="edgeStyle=orthogonalEdgeStyle;rounded=0;orthogonalLoop=1;jettySize=auto;html=1;entryX=0;entryY=0.5;entryDx=0;entryDy=0;entryPerimeter=0;dashed=1;" edge="1" parent="1" source="3" target="8">
                    <mxGeometry relative="1" as="geometry"/>
                </mxCell>
                <mxCell id="3" value="baseNICLinux.json" style="aspect=fixed;html=1;points=[];align=center;image;fontSize=12;image=img/lib/azure2/networking/Network_Interfaces.svg;" vertex="1" parent="1">
                    <mxGeometry x="389.25" y="470" width="34" height="30.01" as="geometry"/>
                </mxCell>
                <mxCell id="4" value="osDisk" style="aspect=fixed;perimeter=ellipsePerimeter;html=1;align=center;shadow=0;dashed=0;spacingTop=3;image;image=img/lib/active_directory/hard_disk.svg;" vertex="1" parent="1">
                    <mxGeometry x="582.8399999999999" y="343.5" width="38.89" height="21" as="geometry"/>
                </mxCell>
                <mxCell id="5" value="baseNSG.json" style="aspect=fixed;html=1;points=[];align=center;image;fontSize=12;image=img/lib/azure2/networking/Network_Security_Groups.svg;" vertex="1" parent="1">
                    <mxGeometry x="526.7" y="465.01" width="32.95" height="40" as="geometry"/>
                </mxCell>
                <mxCell id="6" value="Apache HTTP&lt;br&gt;" style="dashed=0;outlineConnect=0;html=1;align=center;labelPosition=center;verticalLabelPosition=bottom;verticalAlign=top;shape=mxgraph.weblogos.apache" vertex="1" parent="1">
                    <mxGeometry x="60" y="79.99000000000001" width="30" height="60" as="geometry"/>
                </mxCell>
                <mxCell id="8" value="Virtuelt Nettverk" style="verticalLabelPosition=bottom;html=1;verticalAlign=top;align=center;strokeColor=none;fillColor=#00BEF2;shape=mxgraph.azure.virtual_network;pointerEvents=1;" vertex="1" parent="1">
                    <mxGeometry x="518.1700000000001" y="530" width="50" height="27.500000000000004" as="geometry"/>
                </mxCell>
                <mxCell id="12" value="IaaS - Infrastructure as a Service" style="text;html=1;align=center;verticalAlign=middle;resizable=0;points=[];autosize=1;" vertex="1" parent="1">
                    <mxGeometry x="409.23" y="250" width="190" height="20" as="geometry"/>
                </mxCell>
                <mxCell id="13" value="KONFIGURASJON" style="text;html=1;align=center;verticalAlign=middle;resizable=0;points=[];autosize=1;" vertex="1" parent="1">
                    <mxGeometry x="20" y="40" width="120" height="20" as="geometry"/>
                </mxCell>
                <mxCell id="17" value="PaaS - Platform as a Service" style="text;html=1;align=center;verticalAlign=middle;resizable=0;points=[];autosize=1;" vertex="1" parent="1">
                    <mxGeometry x="429.23" y="30" width="170" height="20" as="geometry"/>
                </mxCell>
                <mxCell id="18" value="Azure SQL Databases" style="aspect=fixed;html=1;points=[];align=center;image;fontSize=12;image=img/lib/azure2/databases/SQL_Database.svg;" vertex="1" parent="1">
                    <mxGeometry x="450" y="84.99" width="37.5" height="50" as="geometry"/>
                </mxCell>
                <mxCell id="19" value="Azure Key Vaults" style="aspect=fixed;html=1;points=[];align=center;image;fontSize=12;image=img/lib/mscae/Key_Vaults.svg;" vertex="1" parent="1">
                    <mxGeometry x="568.1700000000001" y="84.99" width="48" height="50" as="geometry"/>
                </mxCell>
                <mxCell id="31" style="edgeStyle=orthogonalEdgeStyle;rounded=0;orthogonalLoop=1;jettySize=auto;html=1;entryX=0;entryY=0.5;entryDx=0;entryDy=0;" edge="1" parent="1" source="26" target="30">
                    <mxGeometry relative="1" as="geometry"/>
                </mxCell>
                <mxCell id="34" style="edgeStyle=orthogonalEdgeStyle;rounded=0;orthogonalLoop=1;jettySize=auto;html=1;entryX=0;entryY=0.5;entryDx=0;entryDy=0;" edge="1" parent="1" source="26" target="29">
                    <mxGeometry relative="1" as="geometry"/>
                </mxCell>
                <mxCell id="26" value="linkedTemplates.json" style="dashed=0;outlineConnect=0;html=1;align=center;labelPosition=center;verticalLabelPosition=bottom;verticalAlign=top;shape=mxgraph.weblogos.json_2" vertex="1" parent="1">
                    <mxGeometry x="220" y="220" width="70" height="20" as="geometry"/>
                </mxCell>
                <mxCell id="35" style="edgeStyle=orthogonalEdgeStyle;rounded=0;orthogonalLoop=1;jettySize=auto;html=1;exitX=0.75;exitY=0;exitDx=0;exitDy=0;entryX=0.25;entryY=0;entryDx=0;entryDy=0;" edge="1" parent="1" source="4" target="4">
                    <mxGeometry relative="1" as="geometry"/>
                </mxCell>
            </root>
        </mxGraphModel>
    </diagram>
</mxfile>